<?xml version="1.0" standalone="no"?>
<!DOCTYPE svg PUBLIC "-//W3C//DTD SVG 20010904//EN"
 "http://www.w3.org/TR/2001/REC-SVG-20010904/DTD/svg10.dtd">
<svg version="1.0" xmlns="http://www.w3.org/2000/svg"
 width="105.000000pt" height="79.000000pt" viewBox="0 0 105.000000 79.000000"
 preserveAspectRatio="xMidYMid meet">
<metadata>
Created by potrace 1.10, written by Peter Selinger 2001-2011
</metadata>
<g transform="translate(0.000000,79.000000) scale(0.100000,-0.100000)"
fill="#000000" stroke="none">
<path d="M375 491 c-17 -10 -43 -33 -58 -50 -23 -28 -27 -41 -27 -100 0 -61 3
-70 29 -95 27 -26 36 -28 104 -28 41 0 84 5 96 12 30 15 51 68 51 126 0 43 -4
51 -53 101 -60 59 -90 66 -142 34z m106 -45 c6 -13 20 -27 30 -29 16 -4 19
-15 19 -70 0 -87 -11 -97 -101 -97 -94 0 -111 16 -107 103 3 56 5 62 26 65 12
2 22 9 22 16 0 22 24 36 62 36 31 0 41 -5 49 -24z"/>
<path d="M397 444 c-15 -16 -5 -24 29 -24 24 0 34 4 32 13 -5 13 -50 22 -61
11z"/>
<path d="M350 335 l0 -56 78 3 77 3 3 53 3 52 -80 0 -81 0 0 -55z m110 1 c0
-21 -17 -29 -46 -22 -38 10 -30 36 11 36 24 0 35 -5 35 -14z"/>
</g>
</svg>
